<?xml version="1.0" encoding="utf-8"?>
<!-- Generator: Adobe Illustrator 22.0.1, SVG Export Plug-In . SVG Version: 6.00 Build 0)  -->
<svg version="1.1" id="Ebene_1" xmlns="http://www.w3.org/2000/svg" xmlns:xlink="http://www.w3.org/1999/xlink" x="0px" y="0px"
	 viewBox="0 0 566.9 226.8" style="enable-background:new 0 0 566.9 226.8;" xml:space="preserve">
<style type="text/css">
	.st0{fill:#A1C436;}
</style>
<g>
	<path class="st0" d="M173.2,162.1c0-0.7,0.1-1.3,0.3-1.9c0.2-0.6,0.5-1.1,0.9-1.6c0.4-0.5,0.8-0.8,1.4-1.1c0.6-0.3,1.2-0.4,1.9-0.4
		c1.4,0,2.5,0.4,3.3,1.3c0.7,0.9,1.1,2.1,1,3.7H173.2z M185.1,162.4c0-1.1-0.1-2.1-0.4-3c-0.3-0.9-0.7-1.7-1.3-2.4
		c-0.6-0.7-1.3-1.2-2.2-1.6c-0.9-0.4-2-0.6-3.3-0.6c-1.2,0-2.3,0.2-3.2,0.6c-1,0.4-1.8,1-2.5,1.8c-0.7,0.8-1.2,1.7-1.6,2.8
		c-0.4,1.1-0.5,2.4-0.5,3.8c0,1.5,0.2,2.8,0.5,3.9c0.3,1.1,0.9,2,1.5,2.8c0.7,0.7,1.5,1.3,2.5,1.7c1,0.4,2.2,0.6,3.5,0.6
		c0.8,0,1.5-0.1,2.2-0.2c0.7-0.1,1.3-0.2,1.8-0.4c0.5-0.1,0.9-0.3,1.3-0.4c0.3-0.2,0.5-0.3,0.6-0.3c0.1-0.1,0.1-0.1,0.2-0.2
		c0-0.1,0.1-0.2,0.1-0.2c0-0.1,0-0.2,0-0.3c0-0.1,0-0.2,0-0.4c0-0.2,0-0.4,0-0.5c0-0.2,0-0.3-0.1-0.4c0-0.1-0.1-0.1-0.2-0.2
		c-0.1,0-0.1-0.1-0.2-0.1c-0.1,0-0.4,0.1-0.6,0.2c-0.3,0.1-0.6,0.3-1.1,0.4c-0.4,0.2-1,0.3-1.6,0.4c-0.6,0.1-1.3,0.2-2.1,0.2
		c-1,0-1.8-0.1-2.5-0.4c-0.7-0.3-1.2-0.7-1.6-1.2c-0.4-0.5-0.7-1.1-0.9-1.9c-0.2-0.7-0.3-1.5-0.3-2.4h10.7c0.3,0,0.6-0.1,0.8-0.3
		c0.2-0.2,0.4-0.5,0.4-1V162.4z M164.8,147.7c0-0.1,0-0.2-0.1-0.3c0-0.1-0.1-0.1-0.2-0.2c-0.1,0-0.3-0.1-0.5-0.1c-0.2,0-0.4,0-0.7,0
		c-0.3,0-0.5,0-0.7,0c-0.2,0-0.3,0.1-0.5,0.1c-0.1,0-0.2,0.1-0.2,0.2c0,0.1-0.1,0.2-0.1,0.3v24.1c0,0.1,0,0.2,0.1,0.2
		c0,0.1,0.1,0.1,0.2,0.2c0.1,0,0.3,0.1,0.5,0.1c0.2,0,0.4,0,0.7,0c0.3,0,0.5,0,0.7,0c0.2,0,0.3-0.1,0.5-0.1c0.1,0,0.2-0.1,0.2-0.2
		c0-0.1,0.1-0.1,0.1-0.2V147.7z M153.2,166.3c-0.2,0.8-0.5,1.5-0.9,2c-0.4,0.6-0.9,1-1.6,1.3c-0.6,0.3-1.4,0.5-2.3,0.5
		c-1,0-1.8-0.2-2.4-0.5c-0.6-0.3-1.2-0.8-1.5-1.4c-0.4-0.6-0.7-1.3-0.8-2c-0.2-0.8-0.2-1.6-0.2-2.5c0-0.9,0.1-1.8,0.3-2.6
		c0.2-0.8,0.5-1.5,0.9-2c0.4-0.6,0.9-1,1.6-1.3c0.6-0.3,1.4-0.5,2.3-0.5c1,0,1.8,0.2,2.4,0.5c0.6,0.3,1.2,0.8,1.5,1.4
		c0.4,0.6,0.6,1.3,0.8,2.1c0.2,0.8,0.2,1.6,0.2,2.5C153.5,164.6,153.4,165.5,153.2,166.3 M156.1,159.9c-0.3-1.1-0.8-2-1.5-2.8
		c-0.7-0.8-1.5-1.3-2.5-1.7c-1-0.4-2.2-0.6-3.5-0.6c-1.4,0-2.6,0.2-3.6,0.7c-1,0.4-1.9,1.1-2.6,1.9c-0.7,0.8-1.2,1.8-1.5,2.9
		c-0.3,1.1-0.5,2.3-0.5,3.6c0,1.4,0.2,2.6,0.5,3.7c0.3,1.1,0.8,2,1.5,2.8c0.7,0.8,1.5,1.3,2.5,1.7c1,0.4,2.2,0.6,3.5,0.6
		c1.4,0,2.6-0.2,3.6-0.7c1-0.5,1.9-1.1,2.6-1.9c0.7-0.8,1.2-1.8,1.6-2.9c0.3-1.1,0.5-2.3,0.5-3.6
		C156.6,162.2,156.5,160.9,156.1,159.9 M138.3,171.4c-0.1-0.1-0.2-0.3-0.3-0.5l-6.6-8.6l5.9-5.9c0.2-0.2,0.3-0.4,0.4-0.5
		c0.1-0.1,0.1-0.3,0.1-0.4c0-0.1,0-0.2-0.1-0.3c-0.1-0.1-0.1-0.1-0.3-0.2c-0.1,0-0.3-0.1-0.5-0.1c-0.2,0-0.5,0-0.8,0
		c-0.3,0-0.5,0-0.7,0c-0.2,0-0.4,0.1-0.5,0.1c-0.2,0.1-0.3,0.1-0.4,0.2c-0.1,0.1-0.2,0.2-0.3,0.3l-6.1,6.7v-14.7
		c0-0.1,0-0.2-0.1-0.3c0-0.1-0.1-0.1-0.2-0.2c-0.1,0-0.3-0.1-0.5-0.1c-0.2,0-0.4,0-0.7,0c-0.3,0-0.5,0-0.7,0c-0.2,0-0.3,0.1-0.5,0.1
		c-0.1,0-0.2,0.1-0.2,0.2c0,0.1-0.1,0.2-0.1,0.3v24.1c0,0.1,0,0.2,0.1,0.2c0,0.1,0.1,0.1,0.2,0.2c0.1,0,0.3,0.1,0.5,0.1
		c0.2,0,0.4,0,0.7,0c0.3,0,0.5,0,0.7,0c0.2,0,0.3-0.1,0.5-0.1c0.1,0,0.2-0.1,0.2-0.2c0-0.1,0.1-0.1,0.1-0.2v-9l6.8,9
		c0.1,0.1,0.2,0.2,0.2,0.3c0.1,0.1,0.2,0.1,0.4,0.2c0.1,0,0.3,0.1,0.5,0.1c0.2,0,0.5,0,0.8,0c0.3,0,0.6,0,0.8,0
		c0.2,0,0.4-0.1,0.5-0.1c0.1,0,0.2-0.1,0.2-0.2c0-0.1,0.1-0.2,0.1-0.3C138.4,171.7,138.4,171.6,138.3,171.4 M119.7,163.3
		c-0.3-0.7-0.7-1.3-1.2-1.8c-0.5-0.5-1.1-0.9-1.7-1.3c-0.6-0.4-1.3-0.7-1.9-1c-0.7-0.3-1.3-0.6-1.9-0.9c-0.6-0.3-1.2-0.6-1.7-1
		c-0.5-0.4-0.9-0.8-1.2-1.2c-0.3-0.5-0.5-1-0.5-1.7c0-0.4,0.1-0.9,0.2-1.3c0.2-0.4,0.4-0.7,0.7-1c0.3-0.3,0.7-0.5,1.2-0.7
		c0.5-0.2,1-0.3,1.7-0.3c0.7,0,1.3,0.1,1.9,0.3c0.6,0.2,1,0.4,1.4,0.6c0.4,0.2,0.8,0.4,1,0.6c0.3,0.2,0.5,0.3,0.6,0.3
		c0.1,0,0.2,0,0.2-0.1c0.1-0.1,0.1-0.1,0.2-0.3c0-0.1,0.1-0.3,0.1-0.4c0-0.2,0-0.4,0-0.6c0-0.2,0-0.4,0-0.6c0-0.1,0-0.3-0.1-0.4
		c0-0.1-0.1-0.2-0.1-0.3c0-0.1-0.1-0.2-0.2-0.3c-0.1-0.1-0.4-0.3-0.7-0.5c-0.4-0.2-0.8-0.4-1.2-0.5c-0.5-0.2-1-0.3-1.5-0.4
		c-0.5-0.1-1-0.1-1.6-0.1c-1,0-1.9,0.1-2.8,0.4c-0.9,0.3-1.6,0.7-2.3,1.2c-0.6,0.5-1.1,1.2-1.5,1.9c-0.4,0.8-0.5,1.6-0.5,2.6
		c0,0.9,0.2,1.8,0.5,2.4c0.3,0.7,0.7,1.3,1.2,1.8c0.5,0.5,1.1,0.9,1.7,1.3c0.6,0.4,1.3,0.7,1.9,1c0.7,0.3,1.3,0.6,1.9,0.9
		c0.6,0.3,1.2,0.6,1.7,1c0.5,0.4,0.9,0.8,1.2,1.2c0.3,0.5,0.5,1,0.5,1.7c0,0.6-0.1,1.2-0.3,1.6c-0.2,0.5-0.5,0.9-0.9,1.2
		c-0.4,0.3-0.9,0.6-1.4,0.8c-0.6,0.2-1.2,0.3-1.8,0.3c-0.9,0-1.7-0.1-2.4-0.3c-0.7-0.2-1.3-0.4-1.7-0.7c-0.5-0.2-0.9-0.5-1.2-0.7
		c-0.3-0.2-0.5-0.3-0.7-0.3c-0.1,0-0.2,0-0.3,0.1c-0.1,0-0.1,0.1-0.2,0.2c0,0.1-0.1,0.2-0.1,0.4c0,0.2,0,0.4,0,0.7
		c0,0.4,0,0.7,0.1,0.9c0.1,0.2,0.2,0.4,0.3,0.5c0.1,0.1,0.4,0.3,0.7,0.5c0.4,0.2,0.8,0.4,1.3,0.6c0.5,0.2,1.1,0.4,1.8,0.5
		c0.7,0.1,1.4,0.2,2.2,0.2c1.1,0,2.2-0.2,3.1-0.5c1-0.3,1.8-0.7,2.5-1.3c0.7-0.6,1.3-1.3,1.7-2.2c0.4-0.9,0.6-1.8,0.6-2.9
		C120.1,164.8,120,164,119.7,163.3 M91.8,161.9c0-1.2-0.1-2.1-0.3-3c-0.2-0.8-0.5-1.5-1-2.2c-0.5-0.6-1.1-1.1-1.8-1.5
		c-0.7-0.4-1.6-0.5-2.7-0.5c-0.9,0-1.8,0.2-2.7,0.7c-0.9,0.5-1.8,1.2-2.7,2.2v-2.1c0-0.1,0-0.2-0.1-0.2c0-0.1-0.1-0.1-0.2-0.2
		c-0.1-0.1-0.2-0.1-0.4-0.1c-0.2,0-0.4,0-0.7,0c-0.3,0-0.5,0-0.7,0c-0.2,0-0.3,0.1-0.4,0.1c-0.1,0.1-0.2,0.1-0.2,0.2
		c0,0.1-0.1,0.1-0.1,0.2v16.2c0,0.1,0,0.2,0.1,0.2c0,0.1,0.1,0.1,0.2,0.2c0.1,0,0.3,0.1,0.5,0.1c0.2,0,0.4,0,0.7,0
		c0.3,0,0.5,0,0.7,0c0.2,0,0.3-0.1,0.5-0.1c0.1,0,0.2-0.1,0.2-0.2c0-0.1,0.1-0.1,0.1-0.2v-11.3c0.8-1,1.6-1.8,2.3-2.3
		c0.7-0.5,1.5-0.8,2.2-0.8c0.6,0,1.1,0.1,1.5,0.3c0.4,0.2,0.8,0.5,1.1,0.9c0.3,0.4,0.5,0.9,0.6,1.5c0.1,0.6,0.2,1.3,0.2,2.2v9.5
		c0,0.1,0,0.2,0.1,0.2c0,0.1,0.1,0.1,0.2,0.2c0.1,0,0.3,0.1,0.5,0.1c0.2,0,0.4,0,0.7,0c0.3,0,0.5,0,0.7,0c0.2,0,0.3-0.1,0.5-0.1
		c0.1,0,0.2-0.1,0.2-0.2c0-0.1,0.1-0.1,0.1-0.2V161.9z M60.7,168.7c-0.6-0.6-1-1.3-1.2-2.2c-0.2-0.9-0.3-1.8-0.3-2.8
		c0-1,0.1-1.8,0.3-2.6c0.2-0.8,0.5-1.5,0.9-2.1c0.4-0.6,1-1,1.6-1.3c0.6-0.3,1.4-0.5,2.3-0.5c0.3,0,0.7,0,1,0.1
		c0.3,0,0.6,0.1,0.8,0.2L60.7,168.7z M69.3,166.3c-0.2,0.8-0.5,1.5-0.9,2.1c-0.4,0.6-1,1-1.6,1.3c-0.6,0.3-1.4,0.5-2.3,0.5
		c-0.3,0-0.6,0-0.9-0.1c-0.3,0-0.6-0.1-0.8-0.2l5.4-11.2c0.3,0.3,0.5,0.6,0.7,1c0.2,0.4,0.4,0.8,0.5,1.2c0.1,0.4,0.2,0.9,0.3,1.4
		c0.1,0.5,0.1,0.9,0.1,1.4C69.6,164.6,69.5,165.5,69.3,166.3 M72.3,161.2c-0.1-0.7-0.3-1.4-0.6-2.1c-0.3-0.6-0.6-1.2-1-1.7
		c-0.4-0.5-0.9-0.9-1.4-1.3l1.5-3.1c0.1-0.3,0.2-0.5,0-0.6s-0.5-0.2-1-0.2c-0.4,0-0.7,0-1,0.1c-0.2,0.1-0.4,0.2-0.5,0.4l-1.2,2.5
		c-0.4-0.1-0.8-0.2-1.3-0.3c-0.5-0.1-0.9-0.1-1.4-0.1c-1.4,0-2.6,0.2-3.6,0.7c-1,0.4-1.9,1.1-2.6,1.9c-0.7,0.8-1.2,1.8-1.6,2.9
		c-0.3,1.1-0.5,2.3-0.5,3.7c0,0.8,0.1,1.5,0.2,2.3c0.1,0.7,0.3,1.4,0.6,2.1c0.3,0.6,0.6,1.2,1,1.8c0.4,0.5,0.9,1,1.4,1.4l-1.5,3.1
		c-0.1,0.3-0.1,0.5,0,0.6c0.1,0.1,0.5,0.2,1,0.2c0.4,0,0.7,0,1-0.1c0.2-0.1,0.4-0.2,0.5-0.4l1.2-2.5c0.3,0.1,0.7,0.2,1.2,0.3
		c0.5,0.1,0.9,0.1,1.5,0.1c1.4,0,2.6-0.2,3.6-0.7c1-0.5,1.9-1.1,2.6-1.9c0.7-0.8,1.2-1.8,1.6-2.9c0.3-1.1,0.5-2.3,0.5-3.6
		C72.5,162.7,72.5,161.9,72.3,161.2 M53.7,156c0-0.2,0-0.3,0-0.4c0-0.1,0-0.2-0.1-0.2c0-0.1-0.1-0.1-0.1-0.2
		c-0.1-0.1-0.2-0.1-0.4-0.2c-0.2-0.1-0.4-0.1-0.6-0.2c-0.2,0-0.4-0.1-0.6-0.1c-0.2,0-0.4,0-0.5,0c-0.3,0-0.7,0-1,0.1
		c-0.3,0.1-0.7,0.3-1,0.5c-0.3,0.2-0.7,0.6-1.1,1c-0.4,0.4-0.8,0.9-1.3,1.6v-2.4c0-0.1,0-0.2-0.1-0.2c0-0.1-0.1-0.1-0.2-0.2
		c-0.1-0.1-0.2-0.1-0.4-0.1c-0.2,0-0.4,0-0.7,0c-0.3,0-0.5,0-0.7,0c-0.2,0-0.3,0.1-0.4,0.1c-0.1,0.1-0.2,0.1-0.2,0.2
		c0,0.1-0.1,0.1-0.1,0.2v16.2c0,0.1,0,0.2,0.1,0.2c0,0.1,0.1,0.1,0.2,0.2c0.1,0,0.3,0.1,0.5,0.1c0.2,0,0.4,0,0.7,0
		c0.3,0,0.5,0,0.7,0c0.2,0,0.3-0.1,0.5-0.1c0.1,0,0.2-0.1,0.2-0.2c0-0.1,0.1-0.1,0.1-0.2v-10.7c0.4-0.7,0.8-1.2,1.2-1.7
		c0.3-0.5,0.7-0.8,1-1.1c0.3-0.3,0.6-0.5,0.9-0.6c0.3-0.1,0.6-0.2,0.9-0.2c0.3,0,0.5,0,0.7,0.1c0.2,0,0.4,0.1,0.6,0.2
		c0.2,0.1,0.3,0.1,0.5,0.2c0.1,0.1,0.3,0.1,0.4,0.1c0.1,0,0.2,0,0.2-0.1c0.1-0.1,0.1-0.1,0.1-0.2c0-0.1,0.1-0.2,0.1-0.4
		c0-0.2,0-0.4,0-0.7C53.7,156.4,53.7,156.2,53.7,156 M37.8,151.2c-0.1-0.2-0.2-0.4-0.3-0.5c-0.2-0.2-0.4-0.4-0.9-0.6
		c-0.4-0.2-0.9-0.5-1.5-0.7c-0.6-0.2-1.3-0.4-2.1-0.5c-0.8-0.2-1.6-0.2-2.5-0.2c-1.7,0-3.3,0.3-4.7,0.9c-1.4,0.6-2.6,1.4-3.7,2.5
		c-1,1.1-1.8,2.3-2.4,3.8c-0.6,1.5-0.8,3.2-0.8,5c0,1.8,0.3,3.4,0.8,4.8c0.5,1.4,1.3,2.7,2.2,3.7c1,1,2.2,1.8,3.6,2.4
		c1.4,0.6,3,0.8,4.8,0.8c0.6,0,1.2,0,1.8-0.1c0.6-0.1,1.2-0.2,1.8-0.3c0.6-0.1,1.2-0.3,1.7-0.5c0.6-0.2,1-0.4,1.4-0.6
		c0.3-0.2,0.6-0.4,0.7-0.6c0.1-0.2,0.2-0.5,0.2-0.8v-8.9c0-0.2,0-0.4-0.1-0.6c-0.1-0.2-0.1-0.3-0.3-0.4c-0.1-0.1-0.2-0.2-0.4-0.2
		c-0.1,0-0.3-0.1-0.4-0.1h-7.4c-0.1,0-0.2,0-0.3,0.1c-0.1,0-0.1,0.1-0.2,0.2c-0.1,0.1-0.1,0.2-0.1,0.4c0,0.2,0,0.4,0,0.6
		c0,0.4,0.1,0.8,0.2,1c0.1,0.2,0.3,0.3,0.5,0.3h5.4v6.8c-0.6,0.3-1.3,0.6-2.1,0.8c-0.7,0.2-1.5,0.3-2.2,0.3c-1.2,0-2.3-0.2-3.3-0.6
		c-1-0.4-1.9-1-2.6-1.8c-0.7-0.8-1.3-1.8-1.7-2.9c-0.4-1.2-0.6-2.5-0.6-4c0-1.3,0.2-2.6,0.6-3.7c0.4-1.1,0.9-2.1,1.6-3
		c0.7-0.8,1.6-1.5,2.6-1.9c1-0.5,2.2-0.7,3.5-0.7c1.1,0,2,0.1,2.8,0.3c0.8,0.2,1.5,0.5,2,0.8c0.6,0.3,1,0.5,1.4,0.8
		c0.3,0.2,0.6,0.3,0.7,0.3c0.1,0,0.2,0,0.2-0.1c0.1,0,0.1-0.1,0.2-0.2c0-0.1,0.1-0.3,0.1-0.4c0-0.2,0-0.4,0-0.6
		C37.9,151.7,37.9,151.4,37.8,151.2"/>
	<path class="st0" d="M486.7,83.6c3.5,0,5.8,2,5.8,4.9c0,5.2-7.1,5.9-15.4,5.1C477.9,86.5,481.9,83.6,486.7,83.6 M500.1,87.8
		c0-6.4-4.9-11-13.1-11c-10.6,0-17.6,6.8-17.6,19.8c0,13.3,5.4,19.8,16.6,19.8c3.1,0,6.4-0.4,9.7-1v-7.2c-2.9,1-5.5,1.4-8.7,1.4
		c-5.5,0-9.3-2.4-10-10l1,0.2C490.6,100.8,500.1,97.8,500.1,87.8 M459.9,115.6V57.3h-4.7c-1.8,0-3,1.2-3,2.9v55.4H459.9z
		 M426.1,109.6c-6.2,0-8.9-3.9-8.9-13.1c0-9.1,2.7-13,8.9-13c6.1,0,8.9,3.9,8.9,13C434.9,105.7,432.2,109.6,426.1,109.6
		 M426.1,116.3c11.1,0,16.5-6.4,16.5-19.8s-5.4-19.8-16.5-19.8c-11.2,0-16.6,6.5-16.6,19.8S414.9,116.3,426.1,116.3 M393.2,97.7
		c-1-1.2-1.8-2-2.7-2.6c0.5-0.5,1-1.1,1.5-1.6l12.9-15.9h-9.1l-10.1,13.8c-0.7,1-1.6,1.5-3,1.5h-1.1V57.3h-4.7c-1.8,0-3,1.2-3,2.9
		v55.4h7.7V99.1h2.2c1.1,0,2.2,0.6,3,1.6l10.6,14.9h9.7L393.2,97.7z M346.7,116.3c12.8,0,19.1-4.6,19.1-14.2c0-7-1.8-9.5-13-15.4
		c-8-4.3-9.9-5.2-9.9-10.1c0-3.8,2.6-6.1,7.2-6.1c4.6,0,8.9,0.6,12.5,1.6v-7.7c-3.3-0.4-7.6-0.7-11.8-0.7c-10.6,0-15.9,4.6-15.9,14
		c0,6.9,2.7,9.8,12.9,15.1c8.3,4.3,10.1,5.6,10.1,10.1c0,4.4-3.3,6.6-10.2,6.6c-4.6,0-8.9-0.6-12.5-1.6v7.7
		C338.5,116.1,342.7,116.3,346.7,116.3 M302.8,121.9V86.2c-2.4-1.5-6.6,0.4-7.7,3.1V123c0,7.7-2.8,10.6-10.3,10.6
		c-4.2,0-6.1-3-6-9.7h-2.2c-2.7,4.1-4.1,7.4-4.1,10c0,4.2,4.1,6.5,11.2,6.5C297.2,140.4,302.8,135,302.8,121.9 M275.8,96.6
		c0,9.1-2.7,13.1-8.9,13.1c-3.2,0-5.2-1.8-5.2-4.4c0-3.1,4.4-6.4,13.6-11.1l0.4-0.2C275.8,94.7,275.8,95.6,275.8,96.6 M266.9,83.6
		c3.8,0,6.4,1.5,7.7,5l-1.3,0.7c-10.4,5.9-14.8,9.1-14.4,13.9h-0.3c-0.4-1.8-0.7-4-0.7-6.6C258,87.5,260.7,83.6,266.9,83.6
		 M304.3,64.3c0-4.2-1.6-8-4.9-10.6h-2.2c0.1,13.4-7,23.4-16.2,30.5c-2.6-5-7.2-7.5-14.1-7.5c-11.2,0-16.6,6.5-16.6,19.8
		s5.4,19.8,16.6,19.8c11.1,0,16.5-6.4,16.5-19.8c0-2.4-0.1-4.5-0.5-6.4C293.7,84.2,304.3,76.6,304.3,64.3 M228.3,76.8
		c-3,0-6.6,0.4-9.7,1c0.4-2.1,0.6-3.9,0.6-5.8V57.3h-4.7c-1.8,0-3,1.2-3,2.9v55.4h7.7V86.7c0-1.8,0.8-2.7,2.4-2.9
		c1.4-0.1,3.8-0.3,5.7-0.3c4.7,0,6.6,2.7,6.6,9.3v22.7h7.7V91.8C241.6,81.4,237.6,76.8,228.3,76.8 M194.8,76.8
		c-3.2,0-8,0.5-11.4,1.3c-1.7,0.4-2.8,1.5-2.8,3.2v34.3h7.7V86.2c0-1.8,0.8-2.7,2.4-2.9c1-0.1,2.4-0.1,3.5-0.1c4.2,0,6.1,3.5,6,10.3
		h2.2c2.5-3.5,4.1-6.8,4.1-10.2C206.3,79.1,202.3,76.8,194.8,76.8 M158.7,83.6c3.5,0,5.8,2,5.8,4.9c0,5.2-7.1,5.9-15.4,5.1
		C149.8,86.5,153.9,83.6,158.7,83.6 M172.1,87.8c0-6.4-4.9-11-13.1-11c-10.6,0-17.6,6.8-17.6,19.8c0,13.3,5.4,19.8,16.6,19.8
		c3.1,0,6.4-0.4,9.7-1v-7.2c-2.9,1-5.5,1.4-8.7,1.4c-5.5,0-9.3-2.4-10-10l1,0.2C162.5,100.8,172.1,97.8,172.1,87.8 M117.6,109.6
		c-6.5,0-8.9-3.6-8.9-13.1c0-9.4,2.4-13,8.9-13c6.7,0,8.4,3.2,8.4,9.1v3.8C126,106,123.8,109.6,117.6,109.6 M126,60.2v11.7
		c0,2.2,0.1,4.4,0.6,7.1c-2.2-1.4-5.4-2.2-9-2.2c-11.2,0-16.5,6.3-16.5,19.8s4.6,19.8,16.5,19.8c11.6,0,16.1-6.3,16.1-19.8V57.3
		h-4.7C127.2,57.3,126,58.5,126,60.2 M79.1,76.8c-4.2,0-9.4,0.4-13.9,1.3c-1.7,0.3-2.8,1.5-2.8,3.2v34.3H70V86.7
		c0-1.8,0.8-2.7,2.4-2.9c1.4-0.1,3.8-0.3,5.7-0.3c4.7,0,6.6,2.7,6.6,9.3v22.7h7.7V91.8C92.3,81.4,88.3,76.8,79.1,76.8 M42.8,80.4
		v35.2h7.7V77.5h-4.7C44,77.5,42.8,78.7,42.8,80.4 M53.2,53.8h-2.2c-0.1,8.2-1.3,10.8-8.3,10.8H12.7c-3.5,0-7,0.1-10.3,0.3v7.4
		c3-0.6,6.3-0.9,10.8-0.9H21v44.3h7.8V71.3h15.6c7.1,0,13.1-1.8,13.1-7.7C57.5,60.5,55.7,56.2,53.2,53.8"/>
</g>
</svg>
