<?xml version="1.0" encoding="utf-8"?>
<!-- Generator: Adobe Illustrator 23.0.1, SVG Export Plug-In . SVG Version: 6.00 Build 0)  -->
<svg version="1.1" xmlns="http://www.w3.org/2000/svg" xmlns:xlink="http://www.w3.org/1999/xlink" x="0px" y="0px"
	 viewBox="0 0 800 800" style="enable-background:new 0 0 800 800;" xml:space="preserve">
<style type="text/css">
	.st0{fill:none;stroke:#000000;stroke-width:14;stroke-miterlimit:10;}
	.st1{display:none;}
	.st2{display:inline;}
	.st3{fill:none;}
</style>
<g id="Layer_1">
	<g>
		<g>
			<path d="M-1146.9-569.2c0-5.5-4.5-10-10-10h-6c-5.5,0-10,4.5-10,10v492.4c0,5.5,4.5,10,10,10h6c5.5,0,10-4.5,10-10V-569.2z"/>
		</g>
		<path d="M-1101.3,1164.6c-1.2-119.7-8.4-373.9-9.5-483c0-0.2,0-0.3,0-0.5c-0.5-48-1-95-1.5-141.1c0-0.9,0.1-1.9,0-2.7
			c-1-98.2-2-192.2-2.9-282.5c0-0.2,0-0.3,0-0.5c-0.4-39.5-0.8-78.3-1.2-116.5c0-0.8,0.1-1.5,0-2.3c-1.2-118.3-2.4-230.2-3.5-336.1
			c0-0.8,0.2-1.6-0.1-2.3c-0.2-0.5-1-1.2-1.6-1.2c-2.8-0.2-5.5-0.2-8.3-0.5c-3-0.2-3.9,0.8-3.9,3.1c0.2,12.1,0.2,24.2,0.3,36.5
			c0,0.9,0,1.7,0,2.5c-0.2,0.1-0.5,0.2-0.8,0.2c-0.9-0.6-1.7-1.3-2.6-1.9c-14.2-11.2-28.4-22.3-42.4-33.3c-2.5-2-4.7-4.2-7.1-6.2
			c-0.3-0.3-1-0.5-1.5-0.5c-3-0.1-5.9-0.1-8.9-0.3c-2.6-0.2-3.3,0.6-3.3,2.6c-1,106.2-2.2,218.4-3.4,337.1c0,0.3-0.1,0.6-0.1,1
			c-1.2,125.6-2.6,258.8-4.1,400.5c-0.1,0.4-0.1,0.8-0.1,1.2c-1.5,151.4-3.2,313.1-4.9,486.1c-0.1,0.4-0.1,0.9-0.1,1.5
			c-0.5,45.6-0.9,92-1.4,139.2 M-1131.2,614c-18.9,18-37.9,36.2-57.1,54.4c-0.8,0.8-1.8,1.6-3.2,2.8c0.3-41.5,0.5-81.7,0.8-121.7
			c1.3,1.1,2.1,1.7,2.9,2.4c18.9,17.8,38,35.7,57.1,53.7c1.6,1.5,2.4,2.7,2.5,4C-1128.4,611-1129.4,612.3-1131.2,614z M-1134.3,76.4
			c-9.6,8.2-19.3,16.4-29,24.6c-7.4,6.3-14.8,12.6-22.3,18.9c-0.7,0.5-1.4,1-2.5,1.8c0.2-32.7,0.4-64.3,0.6-96.2
			c1.3,1,2.1,1.5,2.8,2.1c16.6,13.8,33.2,27.7,50,41.7C-1130.9,72.4-1130.8,73.4-1134.3,76.4z M-1133,198.9
			c-17.8,15.5-35.6,31-53.7,46.6c-0.4,0.4-1,0.7-2,1.5c0.2-34.7,0.4-68.3,0.7-101.8c1.1,0.8,1.9,1.4,2.6,2
			c17.1,14.7,34.3,29.4,51.7,44.3c1.5,1.3,2.4,2.3,2.7,3.3C-1130.7,196.1-1131.3,197.4-1133,198.9z M-1186.2,130.1
			c9-7.7,18.1-15.3,27.1-23c8.3-7.1,16.6-14.2,24.9-21.3c0.6-0.5,1.2-0.9,2.3-1.8c0.2,32.7,0.4,65.3,0.7,98.9
			c-0.2,0-0.3,0.1-0.4,0.2c-0.9-0.6-1.5-0.9-2-1.4c-16-13.6-31.8-27.2-47.6-40.7c-2.4-2.1-4.6-4.4-6.9-6.6
			C-1188.8,133-1188.1,131.7-1186.2,130.1z M-1131.1,209c0.2,34.4,0.5,68.6,0.7,103.8c-3.7-3.1-7-5.9-10.3-8.7
			c-4.9-4.2-9.7-8.4-14.5-12.7c-4.5-4-8.9-8-13.4-11.9c-4.1-3.7-8.2-7.3-12.4-11c-2.3-2-4.6-3.9-6.9-5.9c-1-0.8-1.4-2-1.4-3.1
			C-1169.3,242.2-1150,225.4-1131.1,209z M-1189,272.2c0.2-0.1,0.5-0.3,0.7-0.4c3.9,3.5,7.7,7.1,11.7,10.6
			c8.3,7.4,16.8,14.7,25.1,22.1c6.7,5.9,13.3,11.9,19.9,17.9c2.1,1.9,1.9,4-0.1,5.8c-3.9,3.6-7.9,7.1-11.9,10.7
			c-14.1,12.7-28.4,25.4-42.7,38.2c-0.9,0.8-1.8,1.5-3.4,2.9C-1189.4,343-1189.2,307.3-1189,272.2z M-1131.8,467.3
			c-10.5,9.8-21.1,19.6-31.7,29.5c-8.1,7.5-16.2,15.1-24.4,22.6c-0.7,0.7-1.5,1.2-2.8,2.2c0.3-39.1,0.5-77,0.8-115.1
			c1.5,1.2,2.3,1.8,3.1,2.6c18.1,16.5,36.3,33.1,54.7,49.8C-1128.2,462.4-1128,463.7-1131.8,467.3z M-1188.7,531.6
			c9.9-9.2,19.8-18.4,29.7-27.5c9.1-8.5,18.2-17,27.3-25.5c0.6-0.6,1.3-1.1,2.5-2.1c0.3,38.9,0.5,77.6,0.8,117.7
			c-0.3,0.1-0.5,0.2-0.8,0.3c-1-0.9-2.1-1.8-3.1-2.8c-17-15.9-33.8-31.6-50.5-47.4c-2.9-2.8-5.5-5.8-8.3-8.7
			C-1191.1,534.3-1190.3,533-1188.7,531.6z M-1128.3,626.4c0.3,41.1,0.5,82,0.8,124.3c-4.1-3.8-7.7-7.1-11.3-10.5
			c-5.4-5.1-10.7-10.2-15.9-15.3c-4.9-4.8-9.8-9.6-14.7-14.4c-4.5-4.4-9.1-8.9-13.6-13.2c-2.5-2.4-5.1-4.7-7.6-7.1
			c-0.8-0.8-1.3-1.8-1.4-2.8C-1170.1,666.4-1149,646.2-1128.3,626.4z M-1129.6,768.8c0,0-6.7,0-13.5,0.1
			c-28.8-0.4-43.2-0.6-48.1-0.6c-2.1,0-1.8-3.9-1.6-6.2c0.3-44.9,0.6-18.1,0.9-60.5c0.4-0.2,0.5-0.2,0.9-0.4
			c4.2,4.2,8.4,8.5,12.7,12.7c9.2,8.9,18.4,17.8,27.6,26.8c7.3,7.1,14.6,14.3,21.9,21.6C-1126.4,764.7-1129.6,768.8-1129.6,768.8z
			 M-1185.7-194.3c1,0.7,1.8,1.2,2.4,1.7c15.7,12.4,31.6,24.9,47.5,37.4c3.5,2.7,3.5,4,0,6.8c-15.8,12.6-31.8,25.3-47.8,38.1
			c-0.7,0.6-1.5,1.1-2.7,2C-1186.1-137.6-1185.9-165.9-1185.7-194.3z M-1185.4-100.5c1.4-1.3,3-2.5,4.5-3.7
			c14.9-11.9,29.7-23.8,44.5-35.5c0.8-0.6,1.6-1.2,3-2.2c0.2,29.5,0.4,58.7,0.6,88.9c-3.4-2.6-6.4-4.9-9.4-7.3
			c-4.5-3.5-8.9-7.1-13.3-10.7c-4.1-3.3-8.2-6.7-12.2-10c-3.8-3.1-7.6-6.2-11.4-9.2c-2.1-1.7-4.3-3.2-6.3-4.9
			C-1187.3-96.6-1187.2-98.9-1185.4-100.5z M-1134-40c-3.6,3-7.3,6-10.9,9c-13,10.6-26,21.3-39.1,32c-0.8,0.7-1.6,1.3-3.1,2.4
			c0.2-31.1,0.4-61.1,0.6-90.6c0.2-0.1,0.4-0.2,0.6-0.3c3.6,3,7.1,6,10.7,8.9c7.6,6.2,15.4,12.4,23,18.6c6.1,5,12.2,10,18.2,15
			C-1132-43.3-1132.1-41.5-1134-40z M-1185.4,10.9c16.9-13.9,33.7-27.7,50.4-41.3c0.6-0.5,1.2-0.8,2.3-1.6c0.2,31,0.4,62,0.6,93.9
			c-1.1-0.7-1.8-1.2-2.4-1.7c-17-14.1-34-28.2-50.8-42.2C-1188.3,15.6-1188.4,13.4-1185.4,10.9z M-1187.7,389
			c18.5-16.6,36.8-33,55-49.3c0.6-0.5,1.3-1,2.5-1.9c0.2,37,0.5,74,0.8,112.1c-1.2-0.9-2-1.4-2.7-2c-18.6-16.9-37.1-33.7-55.5-50.4
			C-1191,394.5-1191,392-1187.7,389z"/>
		<path class="st0" d="M-1192.6-202.2c0-17.3,16.6-31.2,37.1-31.2"/>
		<path class="st0" d="M-1127.1-202.2c0-17.3-16.6-31.2-37.1-31.2"/>
	</g>
	<g class="st1">
		<path class="st2" d="M-884.9,560.1c0-108.2,0-216.5,0-324.7c0-0.2,0-0.4,0-0.5c0-48.9,0-97.7,0-146.6c0-1,0.2-2,0-2.9
			c0-157.6,0-315.2,0-472.9c0-1.2,0.3-2.5-0.1-3.5c-0.3-0.8-1.5-1.8-2.4-1.9c-4.2-0.4-8.5-0.4-12.7-0.7c-4.7-0.4-6,1.2-6,4.7
			c0.2,18.4,0.1,36.9,0.1,55.3c0,1.3,0,2.6,0,3.8c-0.4,0.1-0.8,0.2-1.2,0.4c-1.3-1-2.6-1.9-3.9-2.9c-21.5-16.8-43-33.6-64.5-50.5
			c-3.8-3-7.2-6.4-10.9-9.5c-0.5-0.4-1.5-0.8-2.3-0.8c-4.5-0.2-9.1-0.2-13.6-0.5c-4-0.3-5.1,0.9-5.1,4
			c0.1,158.2,0.1,316.4,0.1,474.5c-0.1,0.4-0.1,0.8-0.1,1.3c0.1,157.8,0.1,315.7,0.1,473.5c-0.1,0.4-0.1,0.8-0.1,1.3
			c0.1,158.2,0.1,316.3,0.1,474.5c-0.1,0.4-0.1,0.8-0.1,1.3c0.1,207.6,0.1,415.2,0.1,622.8c0,8.8,0,8.8,11.4,8.2
			c3.3-0.2,6.6-0.4,6.3-4.1c0.7,1.2,1.3,2.4,2.6,4.7c27.6-21.6,54.5-42.7,81-63.4c0,0.4,0,1.6,0,2.9c0,16.5,0,33.1,0,49.6
			c0,11.5,0,11.5,14.6,9.9c6.5-0.7,6.5-0.7,6.5-6.1c0-158.4,0-316.9,0-475.3c0-0.2,0-0.4,0-0.6c0-48.9,0-97.7,0-146.6
			c0-1,0.2-2,0-2.9c0-108.2,0-216.5,0-324.7c0-0.2,0-0.3,0-0.6c0-49.2,0-98.4,0-147.6C-884.9,562.1-884.7,561.1-884.9,560.1z
			 M-985.8,1207.4c0.3-0.2,0.6-0.3,1-0.5c5.3,4.3,10.6,8.6,16,12.9c11.4,8.9,22.8,17.7,34.1,26.6c9,7.1,17.9,14.2,26.8,21.3
			c2.8,2.3,2.5,4.7-0.2,6.9c-5.3,4.2-10.7,8.4-16.1,12.6c-19,14.9-38,29.8-57,44.6c-1.2,0.9-2.4,1.8-4.5,3.4
			C-985.8,1292-985.8,1249.7-985.8,1207.4z M-986.2,1192c27.2-21.3,53.8-42.1,80-62.6c0,42.7,0,84.4,0,126.8c-5-3.7-9.5-7-13.8-10.4
			c-6.6-5-13.1-10.1-19.6-15.2c-6.1-4.8-12.1-9.6-18.2-14.4c-5.6-4.4-11.3-8.9-17-13.3c-3.1-2.4-6.4-4.7-9.5-7.1
			C-985.6,1194.7-986.2,1193.4-986.2,1192z M-908.8,1116.7c-24.7,19.3-49.4,38.7-74.1,58c-0.6,0.5-1.3,0.9-2.7,1.8
			c0-42.9,0-85.2,0-128.2c1.6,1.1,2.7,1.8,3.7,2.6c24.1,18.8,48.1,37.6,72.2,56.5c2.1,1.6,3.3,2.9,3.7,4.1
			C-905.5,1113.3-906.4,1114.8-908.8,1116.7z M-906.2,1096.7c-0.2,0.1-0.4,0.1-0.6,0.2c-1.2-0.7-2.1-1.2-2.8-1.8
			c-22.2-17.3-44.4-34.7-66.6-52c-3.4-2.8-6.5-5.7-9.8-8.6c-0.8-1.9,0-3.6,2.7-5.7c12.7-10,25.5-20,38.2-30
			c11.9-9.3,23.7-18.7,35.5-28c0.8-0.6,1.7-1.2,3.3-2.3C-906.2,1011.6-906.2,1053.8-906.2,1096.7z M-909.7,641.7
			c-23.9,18.7-47.9,37.5-71.8,56.2c-1.1,0.8-2.2,1.6-4,2.9c0-42.7,0-84.7,0-127.3c1.7,1.2,2.8,1.8,3.8,2.6c24.3,19,48.6,38,72.8,57
			c2,1.5,3,2.8,3.2,4.2C-906.2,638.6-907.5,639.9-909.7,641.7z M-909.5,7.7c-13.7,10.9-27.5,21.8-41.3,32.6
			c-10.5,8.2-21,16.5-31.5,24.7c-0.9,0.7-2,1.3-3.5,2.4c0-42.9,0-85.1,0-128.3c1.9,1.4,3.1,2.1,4.1,2.9c24,18.7,47.9,37.5,71.9,56.2
			C-904.6,2.3-904.5,3.7-909.5,7.7z M-908.8,166.1c-24.7,19.3-49.4,38.7-74.1,58c-0.6,0.5-1.3,0.9-2.7,1.8c0-43,0-85.2,0-128.2
			c1.6,1.1,2.7,1.8,3.7,2.6c24.1,18.8,48.1,37.6,72.2,56.5c2.1,1.6,3.3,2.9,3.7,4.1C-905.5,162.6-906.4,164.2-908.8,166.1z
			 M-983.2,78.2c12.7-10,25.5-20,38.2-30c11.9-9.3,23.7-18.7,35.5-28c0.8-0.6,1.7-1.2,3.3-2.3c0,43.1,0,85.3,0,128.2
			c-0.2,0.1-0.4,0.1-0.6,0.2c-1.2-0.7-2.1-1.2-2.8-1.8c-22.2-17.3-44.4-34.7-66.5-52c-3.4-2.8-6.5-5.7-9.8-8.6
			C-986.8,82-985.9,80.3-983.2,78.2z M-906.2,178.7c0,42.7,0,84.4,0,126.8c-5-3.7-9.5-7-13.8-10.4c-6.6-5-13.1-10.1-19.6-15.2
			c-6.1-4.8-12.1-9.6-18.2-14.4c-5.6-4.5-11.3-8.9-17-13.3c-3.1-2.4-6.4-4.7-9.5-7.1c-1.3-1-1.9-2.4-1.9-3.8
			C-959,220-932.4,199.2-906.2,178.7z M-985.8,256.7c0.3-0.2,0.6-0.3,1-0.5c5.3,4.3,10.6,8.6,16,12.9c11.4,8.9,22.8,17.7,34.1,26.6
			c9,7.1,17.9,14.2,26.8,21.3c2.8,2.3,2.5,4.7-0.2,6.9c-5.3,4.2-10.7,8.4-16.1,12.6c-19,14.9-38,29.8-57,44.6
			c-1.2,0.9-2.4,1.8-4.5,3.4C-985.8,341.3-985.8,299-985.8,256.7z M-909.5,483.5c-13.7,10.9-27.5,21.8-41.3,32.6
			c-10.5,8.2-21,16.5-31.5,24.7c-0.9,0.7-2,1.3-3.5,2.4c0-42.9,0-85.1,0-128.3c1.9,1.4,3.1,2.1,4.1,2.9c24,18.7,47.9,37.5,71.9,56.2
			C-904.6,478.1-904.5,479.5-909.5,483.5z M-983.2,554c12.7-10,25.5-20,38.2-30c11.9-9.3,23.7-18.7,35.5-28c0.8-0.6,1.7-1.2,3.3-2.3
			c0,42.7,0,84.6,0,127.2c-0.3,0.1-0.6,0.2-1,0.3c-1.3-1-2.6-1.9-3.9-2.9c-21.5-16.8-43-33.6-64.5-50.4c-3.8-3-7.1-6.3-10.7-9.4
			C-986.3,557-985.3,555.6-983.2,554z M-906.2,654.6c0,42.3,0,83.7,0,125.8c-5-3.7-9.5-7-13.8-10.4c-6.6-5-13.1-10.1-19.6-15.2
			c-6.1-4.8-12.1-9.6-18.2-14.4c-5.6-4.4-11.3-8.9-17-13.3c-3.1-2.4-6.4-4.7-9.5-7.1c-1-0.8-1.6-1.8-1.8-2.8
			C-958.9,695.8-932.4,675-906.2,654.6z M-908.1,798.8c-5.3,4.2-10.7,8.4-16.1,12.6c-19,14.9-38,29.8-57,44.6
			c-1.2,0.9-2.4,1.8-4.5,3.4c0-43.3,0-85.6,0-127.9c0.3-0.2,0.6-0.3,1-0.5c5.3,4.3,10.6,8.6,16,12.9c11.4,8.9,22.8,17.7,34.1,26.6
			c9,7.1,17.9,14.2,26.8,21.3C-905.1,794.1-905.3,796.6-908.1,798.8z M-906.2,810c0,43.3,0,85.8,0,128.9c-1.5-1-2.6-1.6-3.5-2.2
			c-24.4-19.1-48.8-38.1-73.2-57.2c-4.5-3.5-4.5-6.4-0.2-9.8c24.5-19.2,49-38.3,73.5-57.4C-908.8,811.6-907.8,811.1-906.2,810z
			 M-985.6-378.1c1.6,1.1,2.7,1.8,3.7,2.6c24.1,18.8,48.1,37.6,72.2,56.5c5.2,4.1,5.2,6,0,10.1c-23.9,18.7-47.9,37.5-71.9,56.2
			c-1.1,0.8-2.2,1.6-4,2.9C-985.6-292.8-985.6-335.2-985.6-378.1z M-984.2-238.5c2.1-1.9,4.5-3.6,6.7-5.3
			c22.2-17.4,44.5-34.8,66.7-52.1c1.2-0.9,2.4-1.8,4.5-3.3c0,43.4,0,85.9,0,128.9c-5-3.7-9.5-7-13.8-10.4
			c-6.6-5-13.1-10.1-19.6-15.2c-6.1-4.8-12.1-9.6-18.2-14.4c-5.6-4.5-11.3-8.9-17-13.3c-3.1-2.4-6.4-4.7-9.5-7.1
			C-986.9-232.8-986.8-236.2-984.2-238.5z M-908.1-151.9c-5.3,4.2-10.7,8.4-16.1,12.6c-19,14.9-38,29.8-57,44.6
			c-1.2,0.9-2.4,1.8-4.5,3.4c0-43.3,0-85.6,0-127.9c0.3-0.2,0.6-0.3,1-0.5c5.3,4.3,10.6,8.6,16,12.9c11.4,8.9,22.8,17.7,34.1,26.6
			c9,7.1,17.9,14.2,26.8,21.3C-905.1-156.5-905.3-154.1-908.1-151.9z M-983.1-81c24.5-19.2,49-38.3,73.5-57.4
			c0.8-0.6,1.8-1.2,3.4-2.2c0,43.3,0,85.8,0,128.9c-1.5-1-2.6-1.5-3.5-2.2c-24.4-19-48.8-38.1-73.2-57.2
			C-987.3-74.6-987.4-77.6-983.1-81z M-983.1,394.9c24.5-19.2,49-38.3,73.5-57.4c0.8-0.6,1.8-1.2,3.4-2.2c0,43.3,0,85.8,0,128.9
			c-1.5-1-2.6-1.6-3.5-2.2c-24.4-19.1-48.8-38.1-73.2-57.2C-987.3,401.2-987.4,398.3-983.1,394.9z M-983.1,1345.5
			c24.5-19.2,49-38.3,73.5-57.4c0.8-0.6,1.8-1.2,3.4-2.2c0,43.3,0,85.8,0,128.9c-1.5-1-2.6-1.6-3.5-2.2
			c-24.4-19.1-48.8-38.1-73.2-57.2C-987.3,1351.9-987.4,1348.9-983.1,1345.5z M-908.8,1592.6c-24.7,19.3-49.4,38.7-74.1,58
			c-0.6,0.5-1.3,0.9-2.8,1.9c0-43.1,0-85.4,0-128.4c1.8,1.2,2.9,1.9,3.9,2.7c24.3,19,48.6,38,72.8,57
			C-904.9,1587-904.8,1589.4-908.8,1592.6z M-983.2,1504.7c12.7-10,25.5-20,38.2-30c11.9-9.3,23.7-18.7,35.5-28
			c0.8-0.6,1.7-1.2,3.3-2.3c0,43.3,0,85.7,0,128.8c-1.5-0.9-2.6-1.5-3.4-2.1c-24.5-19.1-49-38.3-73.5-57.5
			C-987.2,1510.3-987.3,1507.9-983.2,1504.7z M-909.5,1434.2c-13.7,10.9-27.5,21.8-41.3,32.6c-10.5,8.2-21,16.5-31.5,24.7
			c-0.9,0.7-2,1.3-3.5,2.4c0-42.9,0-85.1,0-128.3c1.9,1.4,3.1,2.1,4.1,2.9c24,18.7,47.9,37.5,71.9,56.2
			C-904.6,1428.8-904.5,1430.2-909.5,1434.2z M-909.5,958.3c-13.7,10.9-27.5,21.8-41.3,32.6c-10.5,8.2-21,16.5-31.5,24.7
			c-0.9,0.7-2,1.3-3.5,2.4c0-42.9,0-85.1,0-128.3c1.9,1.4,3.1,2.1,4.1,2.9c24,18.7,47.9,37.5,71.9,56.2
			C-904.6,952.9-904.5,954.3-909.5,958.3z"/>
	</g>
	<g>
		<path d="M-174.7-561.9c-6-0.8-11.3-2.1-16.7-2.2c-9.3-0.3-18.7-0.1-28,0c-3.9,0-5.9-1.4-5.8-5.6c0.1-14.5,0.1-29,0-43.5
			c0-3.6,1.6-5.2,5.1-5.2c5.5,0,11,0.1,16.5,0c16.3-0.6,32.7-0.5,48.8-2.2c10.2-1.1,20.1-5.1,30.2-7.4c11.8-2.7,23.6-6.9,35.4-7.1
			c68.6-0.9,137.3-1,205.9-1c24.2,0,48.3,0.3,72.5,1.1c23.6,0.8,47.1,2.5,70.6,3.8c17.6,1,35.2,2,52.7,3c9.4,0.6,18.9,1.2,28.3,1.9
			c12.1,1,24.1,2.1,36.2,3.1c12.1,1,24.2,1.8,36.2,3c12.1,1.2,24.1,2.9,36.1,4.4c0.5,0.1,1,0.2,1.5,0.2c11.2,0.8,22.5,1.4,33.7,2.3
			c6.6,0.5,13.3,0.9,19.7,2.3c2.2,0.5,4.9,3.8,5.3,6.1c1,6.4,0.8,12.9,1,19.4c0,0.7-0.2,1.3-0.3,2c-0.8,10.6-1.5,11.2-12.4,12.1
			l-17.2,0.3c-17.4,0.5-34.9,1.3-52.3,2.3c-12.1,0.7-24.2,1.5-36.3,2.6c-10,0.9-20,2.4-30,3.6c-0.7,0.1-1.3,0.2-2,0.2
			c-12.1,0.8-24.2,1.3-36.2,2.4c-8.6,0.8-17.1,2.4-25.6,3.5c-9.7,1.2-19.5,1.9-29.2,3.4c-17.1,2.6-34.2,5.6-51.3,8.4
			c-9.8,1.6-19.7,2.8-29.4,4.6c-8,1.5-15.8,3.4-23.7,5.3c-7.5,1.8-15.1,3.7-22.6,5.6c-10.4,2.6-20.8,5.3-31.3,7.8
			c-8.5,2-17.1,3.6-25.7,5.4c-3.1,0.6-6.1,1.4-9.2,2C70-513,64.3-512,58.6-511l-13.7,3.5c-10,0.5-16,1.4-27.2,2.8
			c-25.5,7.1-51.3,2.6-77.1,3.2c-11.5,0.2-23.1,0.3-34.4-1.2c-10.1-1.4-20.2-4.3-28.7-10.8c-8.9-6.9-15.2-15.7-20.3-25.5
			c-4.8-9.1-11.8-15.9-21.2-20.3L-174.7-561.9z"/>
	</g>
</g>
<g id="Layer_2">
	<g>
		<g>
			<g>
				<path d="M440.9,382.1c5-2.4,8.8-5.9,11.3-10.8c2.7-5.2,6.1-10,10.8-13.6c4.6-3.5,9.9-5.1,15.3-5.8c6-0.9,12.2-0.8,18.3-0.7
					c13.8,0.3,27.5-2.1,41.1,1.7c6,0.7,9.2,1.2,14.5,1.5l7.3,1.9c3,0.6,6.1,1.1,9.1,1.7c1.6,0.3,3.3,0.8,4.9,1.1
					c4.6,1,9.2,1.8,13.7,2.9c5.6,1.3,11.2,2.7,16.7,4.1c4,1,8,2.1,12,3c4.2,1,8.4,2,12.6,2.8c5.2,1,10.5,1.7,15.7,2.5
					c9.1,1.5,18.2,3.1,27.3,4.5c5.1,0.8,10.3,1.2,15.5,1.8c4.5,0.6,9,1.5,13.6,1.9c6.4,0.6,12.9,0.9,19.3,1.3c0.4,0,0.7,0.1,1.1,0.1
					c5.3,0.6,10.7,1.4,16,1.9c6.4,0.6,12.8,1,19.3,1.4c9.2,0.5,18.5,0.9,27.8,1.2l9.2,0.2c5.8,0.5,6.2,0.8,6.6,6.5
					c0,0.4,0.1,0.8,0.1,1.1c-0.1,3.4,0,6.9-0.5,10.3c-0.2,1.3-1.6,3-2.8,3.3c-3.4,0.7-7,0.9-10.5,1.2c-6,0.4-12,0.8-18,1.2
					c-0.3,0-0.5,0.1-0.8,0.1c-6.4,0.8-12.8,1.6-19.2,2.3c-6.4,0.6-12.9,1.1-19.3,1.6c-6.5,0.5-12.9,1.1-19.3,1.6
					c-5.1,0.4-10.1,0.7-15.1,1c-9.4,0.5-18.7,1.1-28.1,1.6c-12.5,0.7-25.1,1.6-37.6,2c-12.9,0.5-25.7,0.6-38.6,0.6
					c-36.5-0.1-73.1-0.1-109.6-0.6c-6.3-0.1-12.6-2.4-18.9-3.8c-5.4-1.2-10.7-3.3-16.1-3.9c-8.6-0.9-17.3-0.9-26-1.2
					c-2.9-0.1-5.9,0-8.8,0c-1.8,0-2.7-0.9-2.7-2.8c0-7.8,0.1-15.5,0-23.2c0-2.2,1-3,3.1-3c5,0.1,9.9,0.2,14.9,0
					c2.9-0.1,5.7-0.8,8.9-1.2L440.9,382.1z"/>
			</g>
			<g>
				<path d="M395.5,442.3c-0.5,5.5,0.8,10.6,3.7,15.2c3.2,4.9,5.6,10.2,6.4,16.1c0.8,5.7-0.5,11.1-2.6,16.1
					c-2.3,5.6-5.4,11-8.6,16.2c-7.1,11.7-11.9,24.8-22,34.7c-3.7,4.8-5.7,7.3-8.6,11.8l-5.3,5.4c-2,2.4-4,4.8-6,7.1
					c-1.1,1.3-2.3,2.5-3.4,3.7c-3.1,3.5-6.1,7-9.3,10.4c-3.9,4.2-7.9,8.3-11.9,12.4c-2.9,2.9-5.8,5.9-8.6,8.9c-3,3.1-6,6.2-8.8,9.5
					c-3.5,4-6.7,8.2-10,12.3c-5.8,7.1-11.7,14.2-17.5,21.4c-3.2,4-6.2,8.3-9.3,12.5c-2.7,3.7-5.8,7.2-8.4,10.9
					c-3.8,5.3-7.2,10.7-10.8,16.1c-0.2,0.3-0.4,0.6-0.6,0.9c-3.2,4.3-6.5,8.5-9.6,12.9c-3.8,5.3-7.4,10.7-10.9,16.1
					c-5.1,7.8-10.1,15.6-15,23.5l-4.7,7.9c-3.3,4.8-3.8,4.9-8.9,2.5c-0.3-0.2-0.7-0.2-1-0.4c-3-1.8-6-3.5-8.7-5.6
					c-1-0.8-1.8-3-1.4-4.1c1.1-3.3,2.7-6.5,4.2-9.7c2.6-5.4,5.3-10.8,7.9-16.2c0.1-0.2,0.2-0.5,0.3-0.7c2.5-5.9,5-11.9,7.6-17.8
					c2.7-5.9,5.6-11.7,8.3-17.5c2.7-5.8,5.4-11.7,8.2-17.5c2.1-4.6,4.4-9.1,6.6-13.6c4.2-8.4,8.4-16.7,12.6-25.1
					c5.7-11.2,11.2-22.5,17.1-33.6c6.1-11.4,12.4-22.6,18.8-33.7c18.3-31.7,36.6-63.3,55.3-94.7c3.2-5.4,8.3-9.7,12.7-14.4
					c3.7-4.1,8.2-7.6,11.4-12c5.1-7,9.4-14.5,14-21.9c1.5-2.5,3-5.1,4.4-7.6c1-1.6,2.2-2,3.8-1c6.7,3.9,13.4,7.8,20.1,11.6
					c1.9,1.1,2.1,2.4,1,4.2c-2.6,4.3-5.2,8.5-7.5,12.9c-1.3,2.5-2.2,5.3-3.4,8.3L395.5,442.3z"/>
			</g>
			<g>
				<path d="M366,372.6c-4.5-3.2-9.5-4.6-15-4.4c-5.9,0.2-11.7-0.3-17.2-2.6c-5.3-2.1-9.3-6-12.6-10.3c-3.7-4.8-6.8-10.1-9.7-15.5
					c-6.7-12-15.6-22.7-19.1-36.4c-2.3-5.6-3.5-8.6-5.9-13.3l-2-7.2c-1-2.9-2.1-5.8-3.1-8.7c-0.5-1.6-1-3.2-1.5-4.8
					c-1.4-4.4-2.9-8.8-4.3-13.3c-1.7-5.5-3.2-11-4.8-16.5c-1.1-4-2.2-7.9-3.4-11.9c-1.3-4.1-2.5-8.2-3.9-12.3
					c-1.8-5-3.8-9.9-5.7-14.8c-3.3-8.6-6.4-17.3-9.8-25.9c-1.9-4.8-4.2-9.5-6.2-14.3c-1.8-4.2-3.3-8.5-5.2-12.7
					c-2.7-5.8-5.6-11.5-8.5-17.3c-0.1-0.3-0.3-0.7-0.4-1c-2.1-4.9-4.1-9.9-6.3-14.8c-2.7-5.8-5.6-11.6-8.5-17.4
					c-4.2-8.3-8.5-16.5-12.9-24.7l-4.4-8c-2.5-5.3-2.4-5.8,2.3-9c0.3-0.2,0.5-0.5,0.8-0.7c3-1.6,6-3.4,9.2-4.7
					c1.1-0.5,3.4-0.1,4.2,0.8c2.4,2.6,4.3,5.6,6.3,8.5c3.3,4.9,6.7,9.9,10,14.9c0.2,0.2,0.3,0.4,0.5,0.6c3.9,5.2,7.8,10.3,11.6,15.5
					c3.7,5.2,7.3,10.6,11,15.9c3.6,5.3,7.4,10.6,11,15.9c2.8,4.1,5.6,8.3,8.4,12.5c5.1,7.8,10.3,15.7,15.4,23.5
					c6.8,10.5,13.9,21,20.5,31.6c6.8,10.9,13.4,22,19.8,33.1c18.2,31.6,36.5,63.3,54.3,95.2c3.1,5.5,4.3,12.1,6.2,18.2
					c1.6,5.3,2.4,10.9,4.6,15.9c3.5,7.9,7.9,15.4,12,23.1c1.4,2.6,2.9,5.1,4.4,7.6c1,1.7,0.6,2.9-1,3.8c-6.7,3.8-13.4,7.7-20.1,11.6
					c-1.9,1.1-3.1,0.6-4.1-1.2c-2.5-4.3-4.9-8.7-7.5-12.9c-1.5-2.4-3.5-4.6-5.5-7.1L366,372.6z"/>
			</g>
			<circle cx="400" cy="400" r="24"/>
			<circle class="st3" cx="400" cy="400" r="400"/>
		</g>
	</g>
</g>
</svg>
