<?xml version="1.0" encoding="utf-8"?>
<!-- Generator: Adobe Illustrator 23.0.1, SVG Export Plug-In . SVG Version: 6.00 Build 0)  -->
<svg version="1.1" xmlns="http://www.w3.org/2000/svg" xmlns:xlink="http://www.w3.org/1999/xlink" x="0px" y="0px"
	 viewBox="0 0 300 1800" style="enable-background:new 0 0 300 1800;" xml:space="preserve">
<style type="text/css">
	.st0{fill:none;stroke:#000000;stroke-width:14;stroke-miterlimit:10;}
	.st1{display:none;}
	.st2{display:inline;}
</style>
<g id="Layer_1">
	<g>
		<path d="M159.2,20.33c0-5.5-4.5-10-10-10h-6c-5.5,0-10,4.5-10,10v492.38c0,5.5,4.5,10,10,10h6c5.5,0,10-4.5,10-10V20.33z"/>
	</g>
	<path d="M204.8,1754.1 M204.8,1754.1c-1.23-119.7-8.41-373.91-9.54-483.01c0-0.18,0-0.35,0-0.54
		c-0.49-47.99-0.98-95.01-1.45-141.11c-0.01-0.91,0.12-1.86-0.03-2.73c-1.01-98.15-1.98-192.22-2.91-282.45c0-0.15,0-0.29,0-0.45
		c-0.41-39.53-0.81-78.34-1.2-116.46c0-0.76,0.11-1.55-0.02-2.28c-1.22-118.32-2.37-230.17-3.46-336.08
		c-0.01-0.78,0.16-1.6-0.12-2.32c-0.2-0.5-0.98-1.17-1.57-1.23c-2.75-0.25-5.53-0.24-8.28-0.46c-3.04-0.24-3.91,0.78-3.87,3.09
		c0.2,12.08,0.22,24.25,0.3,36.48c0.01,0.85,0.01,1.7,0.02,2.55c-0.25,0.08-0.51,0.16-0.76,0.23c-0.86-0.65-1.74-1.28-2.58-1.94
		c-14.21-11.17-28.36-22.26-42.36-33.34c-2.49-1.97-4.68-4.16-7.06-6.21c-0.34-0.3-0.97-0.53-1.48-0.55
		c-2.96-0.14-5.93-0.12-8.88-0.33c-2.63-0.19-3.33,0.56-3.35,2.62c-1.05,106.22-2.19,218.41-3.42,337.11
		c-0.04,0.31-0.07,0.64-0.07,1.02c-1.24,125.56-2.61,258.83-4.06,400.53c-0.05,0.37-0.08,0.77-0.08,1.23
		c-1.5,151.4-3.16,313.06-4.94,486.06c-0.06,0.45-0.09,0.94-0.09,1.5c-0.45,45.55-0.92,91.96-1.4,139.25 M174.91,1203.53
		c-18.89,18.02-37.93,36.16-57.13,54.45c-0.85,0.81-1.76,1.56-3.21,2.84c0.28-41.49,0.54-81.65,0.81-121.69
		c1.29,1.07,2.14,1.72,2.91,2.43c18.91,17.77,37.96,35.67,57.14,53.74c1.55,1.46,2.38,2.72,2.52,3.97
		C177.71,1200.51,176.7,1201.82,174.91,1203.53z M171.81,665.93c-9.57,8.22-19.26,16.4-28.96,24.63
		c-7.39,6.28-14.81,12.57-22.27,18.87c-0.65,0.55-1.39,1.01-2.51,1.82c0.22-32.65,0.43-64.31,0.64-96.21
		c1.33,1.01,2.11,1.55,2.83,2.14c16.56,13.79,33.22,27.67,49.99,41.66C175.17,661.88,175.28,662.94,171.81,665.93z M173.03,788.36
		c-17.75,15.45-35.65,30.99-53.68,46.64c-0.44,0.38-0.95,0.72-1.96,1.48c0.23-34.66,0.45-68.26,0.68-101.82
		c1.11,0.85,1.91,1.41,2.63,2.02c17.1,14.66,34.32,29.43,51.65,44.31c1.51,1.3,2.41,2.32,2.72,3.29
		C175.41,785.61,174.74,786.87,173.03,788.36z M119.84,719.57c9.04-7.71,18.12-15.33,27.11-22.97c8.35-7.09,16.64-14.2,24.92-21.26
		c0.57-0.49,1.21-0.92,2.3-1.75c0.22,32.71,0.44,65.28,0.66,98.93c-0.15,0.05-0.3,0.1-0.44,0.15c-0.85-0.56-1.49-0.94-2.02-1.39
		c-15.96-13.63-31.82-27.19-47.56-40.66c-2.41-2.13-4.6-4.44-6.92-6.64C117.31,722.54,117.95,721.19,119.84,719.57z M174.97,798.47
		c0.23,34.38,0.46,68.58,0.7,103.83c-3.69-3.11-7.02-5.86-10.28-8.67c-4.87-4.21-9.7-8.44-14.5-12.68
		c-4.48-3.96-8.9-7.96-13.35-11.92c-4.13-3.67-8.25-7.34-12.39-10.97c-2.27-1.98-4.65-3.86-6.9-5.86c-0.95-0.84-1.4-1.96-1.37-3.11
		C136.81,831.72,156.11,814.9,174.97,798.47z M117.09,861.74c0.24-0.14,0.48-0.27,0.71-0.41c3.89,3.54,7.73,7.12,11.69,10.62
		c8.32,7.38,16.75,14.71,25.13,22.14c6.66,5.91,13.3,11.86,19.9,17.88c2.09,1.9,1.92,3.98-0.13,5.85
		c-3.93,3.58-7.92,7.12-11.9,10.69c-14.14,12.66-28.37,25.39-42.68,38.19c-0.88,0.79-1.8,1.53-3.43,2.9
		C116.62,932.52,116.86,896.84,117.09,861.74z M174.22,1056.78c-10.47,9.84-21.07,19.63-31.69,29.5
		c-8.09,7.52-16.22,15.06-24.39,22.62c-0.71,0.66-1.53,1.22-2.75,2.18c0.26-39.13,0.52-77.02,0.77-115.14
		c1.45,1.2,2.31,1.85,3.09,2.56c18.09,16.47,36.31,33.07,54.66,49.8C177.89,1051.93,178.02,1053.21,174.22,1056.78z M117.33,1121.06
		c9.9-9.25,19.85-18.39,29.7-27.54c9.14-8.5,18.21-17.01,27.27-25.46c0.62-0.58,1.32-1.1,2.52-2.09
		c0.26,38.88,0.52,77.64,0.79,117.72c-0.26,0.09-0.51,0.19-0.77,0.28c-1.03-0.92-2.07-1.82-3.08-2.76
		c-16.96-15.89-33.82-31.64-50.49-47.37c-2.93-2.76-5.51-5.83-8.3-8.71C114.96,1123.84,115.75,1122.54,117.33,1121.06z
		 M177.77,1215.9c0.28,41.08,0.55,82.02,0.83,124.26c-4.06-3.76-7.73-7.09-11.31-10.49c-5.36-5.09-10.67-10.2-15.95-15.32
		c-4.93-4.78-9.78-9.61-14.67-14.39c-4.53-4.44-9.06-8.87-13.61-13.25c-2.49-2.39-5.11-4.66-7.57-7.07
		c-0.8-0.78-1.27-1.76-1.44-2.79C135.94,1255.91,157.1,1235.67,177.77,1215.9z M176.44,1358.27c0,0-6.67,0-13.47,0.14
		c-28.8-0.43-43.24-0.56-48.05-0.56c-2.08,0-1.81-3.89-1.57-6.18c0.3-44.95,0.59-18.11,0.87-60.51c0.43-0.18,0.47-0.2,0.9-0.38
		c4.23,4.23,8.42,8.51,12.72,12.7c9.15,8.91,18.41,17.77,27.62,26.75c7.32,7.14,14.63,14.34,21.89,21.62
		C179.65,1354.16,176.44,1358.27,176.44,1358.27z M120.33,395.15c1.02,0.72,1.75,1.19,2.42,1.71c15.73,12.4,31.56,24.88,47.48,37.44
		c3.47,2.74,3.48,4.01,0.02,6.77c-15.83,12.63-31.76,25.34-47.81,38.13c-0.71,0.57-1.47,1.09-2.68,1.98
		C119.95,451.93,120.14,423.55,120.33,395.15z M120.66,489.01c1.44-1.27,3.01-2.45,4.53-3.66c14.91-11.91,29.73-23.75,44.47-35.51
		c0.77-0.61,1.58-1.19,2.95-2.21c0.2,29.47,0.39,58.73,0.6,88.86c-3.38-2.61-6.44-4.93-9.42-7.29c-4.47-3.54-8.89-7.1-13.3-10.66
		c-4.11-3.33-8.16-6.69-12.25-10.02c-3.79-3.09-7.57-6.18-11.37-9.24c-2.08-1.67-4.27-3.25-6.33-4.93
		C118.81,492.92,118.87,490.59,120.66,489.01z M172.03,549.53c-3.61,3.01-7.26,5.98-10.91,8.97
		c-12.96,10.63-25.99,21.31-39.09,32.04c-0.8,0.66-1.65,1.28-3.14,2.43c0.21-31.11,0.41-61.08,0.61-90.6
		c0.22-0.11,0.44-0.23,0.65-0.34c3.57,2.98,7.1,5.99,10.72,8.94c7.64,6.2,15.37,12.37,23.05,18.62c6.1,4.96,12.19,9.97,18.24,15.03
		C174.07,546.21,173.92,547.96,172.03,549.53z M120.68,600.44c16.89-13.89,33.69-27.66,50.38-41.35c0.56-0.46,1.21-0.84,2.29-1.58
		c0.21,31.05,0.42,62,0.63,93.91c-1.08-0.73-1.82-1.15-2.44-1.67c-17.05-14.14-33.97-28.19-50.76-42.16
		C117.72,605.05,117.69,602.9,120.68,600.44z M118.33,978.51c18.46-16.57,36.8-32.99,55.01-49.29c0.61-0.55,1.32-1,2.49-1.88
		c0.25,37.01,0.5,73.95,0.75,112.09c-1.18-0.88-1.99-1.38-2.67-2c-18.64-16.91-37.14-33.7-55.49-50.38
		C115.09,984.01,115.06,981.45,118.33,978.51z"/>
	<path class="st0" d="M113.44,387.33c0-17.26,16.6-31.22,37.12-31.22"/>
	<path class="st0" d="M179.01,387.26c0-17.26-16.6-31.22-37.12-31.22"/>
</g>
<g id="Layer_2" class="st1">
	<path class="st2" d="M421.19,1149.64c0-108.24,0-216.49,0-324.73c0-0.18,0-0.36,0-0.55c0-48.86,0-97.72,0-146.59
		c0-0.98,0.18-2,0-2.94c0-157.62,0-315.24,0-472.87c0-1.19,0.27-2.45-0.15-3.54c-0.3-0.77-1.48-1.8-2.39-1.88
		c-4.21-0.38-8.47-0.37-12.68-0.7c-4.66-0.36-6,1.19-5.96,4.73c0.18,18.43,0.08,36.86,0.08,55.28c0,1.27,0,2.55,0,3.82
		c-0.39,0.12-0.77,0.23-1.16,0.35c-1.3-0.97-2.62-1.92-3.89-2.91c-21.51-16.81-43.04-33.59-64.47-50.45
		c-3.82-3.01-7.2-6.36-10.86-9.5c-0.53-0.45-1.48-0.8-2.27-0.84c-4.53-0.21-9.09-0.18-13.61-0.5c-4.03-0.29-5.1,0.85-5.1,4.01
		c0.08,158.18,0.09,316.35,0.09,474.53c-0.06,0.4-0.09,0.83-0.09,1.32c0.08,157.83,0.09,315.66,0.09,473.48
		c-0.06,0.4-0.09,0.83-0.09,1.32c0.08,158.18,0.09,316.35,0.09,474.53c-0.06,0.4-0.09,0.83-0.09,1.32
		c0.1,207.58,0.09,415.17,0.09,622.75c0,8.81,0,8.82,11.36,8.23c3.31-0.17,6.6-0.39,6.31-4.13c0.67,1.22,1.33,2.44,2.6,4.74
		c27.6-21.6,54.5-42.66,80.99-63.39c0,0.35,0,1.64,0,2.93c0,16.53,0,33.05,0,49.58c0,11.52,0,11.52,14.65,9.92
		c6.46-0.71,6.46-0.71,6.46-6.11c0-158.43,0-316.87,0-475.3c0-0.18,0-0.36,0-0.55c0-48.86,0-97.72,0-146.59c0-0.98,0.18-2,0-2.94
		c0-108.24,0-216.49,0-324.73c0-0.18,0-0.35,0-0.55c0-49.21,0-98.42,0-147.63C421.19,1151.6,421.37,1150.58,421.19,1149.64z
		 M320.29,1796.89c0.32-0.16,0.65-0.33,0.97-0.49c5.33,4.29,10.6,8.63,16,12.87c11.35,8.9,22.8,17.73,34.14,26.63
		c8.99,7.06,17.93,14.16,26.79,21.32c2.8,2.26,2.55,4.72-0.23,6.94c-5.33,4.24-10.72,8.42-16.09,12.62
		c-19.01,14.87-38.03,29.75-57.05,44.62c-1.16,0.91-2.39,1.77-4.54,3.36C320.29,1881.49,320.29,1839.19,320.29,1796.89z
		 M319.87,1781.48c27.24-21.32,53.8-42.11,79.96-62.58c0,42.66,0,84.44,0,126.81c-4.96-3.71-9.45-7-13.84-10.36
		c-6.58-5.04-13.12-10.12-19.62-15.23c-6.09-4.77-12.1-9.6-18.17-14.39c-5.64-4.45-11.27-8.91-16.95-13.32
		c-3.11-2.42-6.38-4.7-9.47-7.14C320.47,1784.24,319.84,1782.87,319.87,1781.48z M397.23,1706.22
		c-24.68,19.34-49.39,38.66-74.09,57.98c-0.6,0.47-1.29,0.89-2.67,1.82c0-42.95,0-85.24,0-128.15c1.57,1.1,2.69,1.81,3.71,2.61
		c24.06,18.82,48.12,37.64,72.17,56.47c2.09,1.64,3.33,2.92,3.74,4.14C400.57,1702.75,399.62,1704.34,397.23,1706.22z
		 M399.9,1686.24c-0.21,0.06-0.41,0.13-0.62,0.19c-1.18-0.71-2.07-1.19-2.81-1.77c-22.2-17.33-44.38-34.66-66.55-52.01
		c-3.41-2.75-6.5-5.74-9.79-8.59c-0.84-1.86,0.04-3.61,2.7-5.71c12.7-10.03,25.51-19.97,38.24-29.98
		c11.87-9.33,23.68-18.7,35.52-28.04c0.82-0.64,1.73-1.22,3.3-2.32C399.9,1601.08,399.9,1643.3,399.9,1686.24z M396.32,1231.2
		c-23.94,18.74-47.89,37.48-71.85,56.21c-1.06,0.83-2.19,1.59-4,2.9c0-42.67,0-84.68,0-127.3c1.66,1.15,2.76,1.84,3.75,2.61
		c24.28,18.98,48.56,37.97,72.81,56.97c1.95,1.52,2.99,2.85,3.16,4.16C399.88,1228.05,398.6,1229.41,396.32,1231.2z M396.58,597.15
		c-13.71,10.92-27.55,21.76-41.34,32.62c-10.48,8.25-20.96,16.49-31.46,24.73c-0.91,0.72-1.96,1.32-3.54,2.37
		c0-42.89,0-85.13,0-128.33c1.93,1.37,3.07,2.11,4.11,2.93c23.97,18.74,47.94,37.48,71.89,56.24
		C401.42,591.75,401.58,593.17,396.58,597.15z M397.23,755.56c-24.68,19.34-49.39,38.66-74.09,57.99c-0.6,0.47-1.29,0.89-2.67,1.82
		c0-42.95,0-85.24,0-128.15c1.57,1.1,2.69,1.81,3.71,2.61c24.06,18.82,48.12,37.64,72.17,56.47c2.09,1.64,3.33,2.92,3.74,4.14
		C400.57,752.09,399.62,753.69,397.23,755.56z M322.83,667.69c12.7-10.03,25.51-19.97,38.24-29.98
		c11.87-9.33,23.68-18.7,35.52-28.04c0.82-0.64,1.73-1.22,3.3-2.32c0,43.08,0,85.29,0,128.23c-0.21,0.06-0.41,0.13-0.62,0.19
		c-1.18-0.71-2.07-1.19-2.81-1.77c-22.2-17.33-44.38-34.66-66.55-52.01c-3.41-2.75-6.5-5.74-9.79-8.59
		C319.29,671.54,320.17,669.79,322.83,667.69z M399.82,768.24c0,42.66,0,84.44,0,126.81c-4.96-3.71-9.45-7-13.84-10.36
		c-6.58-5.04-13.12-10.12-19.62-15.23c-6.09-4.77-12.1-9.6-18.17-14.39c-5.64-4.45-11.27-8.91-16.95-13.32
		c-3.11-2.42-6.38-4.7-9.47-7.14c-1.3-1.03-1.94-2.4-1.91-3.79C347.11,809.5,373.67,788.71,399.82,768.24z M320.29,846.23
		c0.32-0.16,0.65-0.33,0.97-0.49c5.33,4.29,10.6,8.63,16,12.87c11.35,8.9,22.8,17.73,34.14,26.63c8.99,7.06,17.93,14.16,26.79,21.32
		c2.8,2.26,2.55,4.72-0.23,6.94c-5.33,4.24-10.72,8.42-16.09,12.62c-19.01,14.87-38.03,29.75-57.05,44.62
		c-1.16,0.91-2.39,1.77-4.54,3.36C320.29,930.83,320.29,888.53,320.29,846.23z M396.58,1073c-13.71,10.92-27.55,21.76-41.34,32.62
		c-10.48,8.25-20.96,16.49-31.46,24.73c-0.91,0.72-1.96,1.32-3.54,2.37c0-42.89,0-85.13,0-128.33c1.93,1.37,3.07,2.11,4.11,2.93
		c23.97,18.74,47.94,37.48,71.89,56.24C401.42,1067.6,401.58,1069.02,396.58,1073z M322.83,1143.54
		c12.7-10.03,25.51-19.97,38.24-29.98c11.87-9.33,23.68-18.7,35.52-28.04c0.82-0.64,1.73-1.22,3.3-2.32c0,42.73,0,84.61,0,127.19
		c-0.33,0.1-0.65,0.2-0.98,0.3c-1.3-0.97-2.62-1.92-3.89-2.91c-21.51-16.81-43.04-33.59-64.47-50.45
		c-3.78-2.97-7.12-6.28-10.74-9.39C319.81,1146.54,320.81,1145.14,322.83,1143.54z M399.82,1244.09c0,42.3,0,83.74,0,125.77
		c-4.96-3.71-9.45-7-13.84-10.36c-6.58-5.04-13.12-10.12-19.62-15.23c-6.09-4.77-12.1-9.6-18.17-14.39
		c-5.64-4.45-11.27-8.91-16.95-13.32c-3.11-2.42-6.38-4.7-9.47-7.14c-1-0.79-1.6-1.78-1.82-2.82
		C347.17,1285.3,373.7,1264.54,399.82,1244.09z M397.97,1388.3c-5.33,4.24-10.72,8.42-16.09,12.62
		c-19.01,14.87-38.03,29.75-57.05,44.62c-1.16,0.91-2.39,1.77-4.54,3.36c0-43.26,0-85.56,0-127.86c0.32-0.16,0.65-0.33,0.97-0.49
		c5.33,4.29,10.6,8.63,16,12.87c11.35,8.9,22.8,17.73,34.14,26.63c8.99,7.06,17.93,14.16,26.79,21.32
		C401,1383.62,400.75,1386.09,397.97,1388.3z M399.83,1399.54c0,43.27,0,85.75,0,128.88c-1.54-0.98-2.59-1.55-3.48-2.25
		c-24.4-19.05-48.8-38.1-73.17-57.18c-4.46-3.49-4.52-6.44-0.2-9.82c24.48-19.16,48.98-38.29,73.49-57.43
		C397.29,1401.11,398.24,1400.58,399.83,1399.54z M320.47,211.36c1.57,1.1,2.69,1.81,3.71,2.61c24.06,18.82,48.12,37.64,72.17,56.47
		c5.23,4.09,5.21,5.99-0.03,10.1c-23.94,18.74-47.89,37.48-71.85,56.21c-1.06,0.83-2.19,1.59-4,2.9
		C320.47,296.65,320.47,254.32,320.47,211.36z M321.9,351.03c2.14-1.85,4.47-3.56,6.73-5.32c22.24-17.39,44.48-34.77,66.73-52.15
		c1.16-0.91,2.4-1.77,4.46-3.28c0,43.4,0,85.86,0,128.93c-4.96-3.71-9.45-7-13.84-10.36c-6.58-5.04-13.12-10.12-19.62-15.23
		c-6.09-4.77-12.1-9.6-18.17-14.39c-5.64-4.45-11.27-8.91-16.95-13.32c-3.11-2.42-6.38-4.7-9.47-7.14
		C319.18,356.71,319.24,353.33,321.9,351.03z M397.97,437.64c-5.33,4.24-10.72,8.42-16.09,12.62
		c-19.01,14.87-38.03,29.75-57.05,44.62c-1.16,0.91-2.39,1.77-4.54,3.36c0-43.26,0-85.56,0-127.86c0.32-0.16,0.65-0.33,0.97-0.49
		c5.33,4.29,10.6,8.63,16,12.87c11.35,8.9,22.8,17.73,34.14,26.63c8.99,7.06,17.93,14.16,26.79,21.32
		C401,432.96,400.75,435.43,397.97,437.64z M322.97,508.52c24.48-19.16,48.98-38.29,73.49-57.43c0.82-0.64,1.78-1.18,3.37-2.22
		c0,43.27,0,85.75,0,128.88c-1.54-0.98-2.59-1.55-3.48-2.25c-24.4-19.05-48.8-38.1-73.17-57.18
		C318.72,514.85,318.65,511.9,322.97,508.52z M322.97,984.37c24.48-19.16,48.98-38.29,73.49-57.43c0.82-0.64,1.78-1.18,3.37-2.22
		c0,43.27,0,85.75,0,128.88c-1.54-0.98-2.59-1.55-3.48-2.25c-24.4-19.05-48.8-38.1-73.17-57.18
		C318.72,990.7,318.65,987.75,322.97,984.37z M322.97,1935.03c24.48-19.16,48.98-38.29,73.49-57.43c0.82-0.64,1.78-1.18,3.37-2.22
		c0,43.27,0,85.75,0,128.88c-1.54-0.98-2.59-1.55-3.48-2.25c-24.4-19.05-48.8-38.1-73.17-57.18
		C318.72,1941.36,318.65,1938.41,322.97,1935.03z M397.23,2182.07c-24.68,19.34-49.39,38.66-74.09,57.99
		c-0.63,0.49-1.34,0.92-2.84,1.94c0-43.09,0-85.39,0-128.44c1.76,1.22,2.89,1.93,3.91,2.73c24.28,18.98,48.56,37.97,72.81,56.97
		C401.21,2176.52,401.29,2178.89,397.23,2182.07z M322.83,2094.2c12.7-10.03,25.51-19.97,38.24-29.98
		c11.87-9.33,23.68-18.7,35.52-28.04c0.82-0.64,1.73-1.22,3.3-2.32c0,43.26,0,85.66,0,128.79c-1.52-0.94-2.57-1.47-3.43-2.14
		c-24.52-19.14-49.03-38.29-73.51-57.46C318.83,2099.83,318.75,2097.43,322.83,2094.2z M396.58,2023.66
		c-13.71,10.92-27.55,21.76-41.34,32.62c-10.48,8.25-20.96,16.49-31.46,24.73c-0.91,0.72-1.96,1.32-3.54,2.37
		c0-42.89,0-85.13,0-128.33c1.93,1.37,3.07,2.11,4.11,2.93c23.97,18.74,47.94,37.48,71.89,56.24
		C401.42,2018.26,401.58,2019.68,396.58,2023.66z M396.58,1547.81c-13.71,10.92-27.55,21.76-41.34,32.62
		c-10.48,8.25-20.96,16.49-31.46,24.73c-0.91,0.72-1.96,1.32-3.54,2.37c0-42.89,0-85.13,0-128.33c1.93,1.37,3.07,2.11,4.11,2.93
		c23.97,18.74,47.94,37.48,71.89,56.24C401.42,1542.41,401.58,1543.83,396.58,1547.81z"/>
</g>
</svg>
